<svg width="16" height="16" viewBox="0 0 16 16" fill="none" xmlns="http://www.w3.org/2000/svg">
<path d="M11.5455 0.0514691C12.3573 0.0885155 12.9184 0.207791 13.4377 0.409608C13.9572 0.611509 14.3506 0.867452 14.7416 1.25845C15.1326 1.64943 15.3885 2.04282 15.5905 2.56241C15.7922 3.08176 15.9115 3.64279 15.9485 4.45448C15.9944 5.46114 16 5.81597 16 7.99998C16 10.184 15.9944 10.5389 15.9485 11.5455C15.9115 12.3572 15.7922 12.9182 15.5904 13.4378C15.3884 13.9572 15.1325 14.3506 14.7416 14.7415C14.3507 15.1325 13.9572 15.3885 13.4376 15.5904C12.9181 15.7922 12.3572 15.9115 11.5455 15.9485C10.5391 15.9944 10.1844 16 8 16C5.81563 16 5.46088 15.9944 4.45448 15.9485C3.64284 15.9115 3.0818 15.7922 2.56228 15.5904C2.04278 15.3885 1.64933 15.1325 1.25842 14.7416C0.867449 14.3506 0.61148 13.9571 0.409545 13.4376C0.207762 12.9182 0.0885132 12.3572 0.0514693 11.5456C0.00556863 10.5395 0 10.185 0 7.99998C0 5.81502 0.00556864 5.46047 0.0514698 4.45444C0.0885132 3.64279 0.207762 3.08176 0.409575 2.56233C0.61146 2.04287 0.867424 1.64944 1.25838 1.25848C1.64933 0.867493 2.04278 0.611533 2.5623 0.40961C3.08157 0.207798 3.64273 0.088516 4.45443 0.0514691C5.4605 0.00556815 5.81502 0 8 0C10.185 0 10.5395 0.00556823 11.5455 0.0514691ZM8 1.77778C5.83973 1.77778 5.50934 1.78297 4.53547 1.8274C3.91743 1.85561 3.54635 1.93449 3.20632 2.06664C2.91599 2.17948 2.7315 2.2995 2.51549 2.51553C2.29944 2.73158 2.17942 2.91606 2.06664 3.20625C1.93447 3.54644 1.85561 3.91745 1.8274 4.53548C1.78297 5.50931 1.77778 5.83974 1.77778 7.99998C1.77778 10.1603 1.78297 10.4907 1.8274 11.4645C1.85561 12.0825 1.93447 12.4536 2.0666 12.7937C2.17943 13.0839 2.29947 13.2684 2.51553 13.4845C2.7315 13.7005 2.91599 13.8205 3.20622 13.9333C3.54648 14.0655 3.91747 14.1444 4.53549 14.1726C5.50974 14.217 5.84034 14.2222 8 14.2222C10.1597 14.2222 10.4903 14.217 11.4645 14.1726C12.0825 14.1444 12.4535 14.0655 12.7937 13.9334C13.084 13.8205 13.2685 13.7005 13.4845 13.4845C13.7005 13.2685 13.8205 13.084 13.9334 12.7938C14.0655 12.4536 14.1444 12.0825 14.1726 11.4645C14.217 10.49 14.2222 10.1593 14.2222 7.99998C14.2222 5.84066 14.217 5.50996 14.1726 4.53549C14.1444 3.91745 14.0655 3.54644 13.9334 3.20639C13.8205 2.91603 13.7005 2.73153 13.4845 2.51549C13.2685 2.2995 13.084 2.17949 12.7937 2.06664C12.4536 1.93448 12.0826 1.85561 11.4645 1.8274C10.4907 1.78297 10.1603 1.77778 8 1.77778ZM8 12.1481C5.70904 12.1481 3.85185 10.291 3.85185 8C3.85185 5.70904 5.70904 3.85185 8 3.85185C10.291 3.85185 12.1481 5.70904 12.1481 8C12.1481 10.291 10.291 12.1481 8 12.1481ZM8 10.3704C9.30912 10.3704 10.3704 9.30912 10.3704 8C10.3704 6.69088 9.30912 5.62963 8 5.62963C6.69088 5.62963 5.62963 6.69088 5.62963 8C5.62963 9.30912 6.69088 10.3704 8 10.3704ZM12.1481 4.74074C11.6572 4.74074 11.2593 4.34277 11.2593 3.85185C11.2593 3.36093 11.6572 2.96296 12.1481 2.96296C12.6391 2.96296 13.037 3.36093 13.037 3.85185C13.037 4.34277 12.6391 4.74074 12.1481 4.74074Z" fill="white"/>
</svg>
